HIERARCHY
ROOT Hips
{
	OFFSET 0.000000 0.000000 0.000000
	CHANNELS 6 Xposition Yposition Zposition Zrotation Yrotation Xrotation 
	JOINT LHipJoint
	{
		OFFSET 0.000000 0.000000 0.000000
		CHANNELS 3 Zrotation Yrotation Xrotation
		JOINT LeftUpLeg
		{
			OFFSET 1.363060 -1.794630 0.839290
			CHANNELS 3 Zrotation Yrotation Xrotation
			JOINT LeftLeg
			{
				OFFSET 2.448110 -6.726130 0.000000
				CHANNELS 3 Zrotation Yrotation Xrotation
				JOINT LeftFoot
				{
					OFFSET 2.562200 -7.039590 0.000000
					CHANNELS 3 Zrotation Yrotation Xrotation
					JOINT LeftToeBase
					{
						OFFSET 0.157640 -0.433110 2.322550
						CHANNELS 3 Zrotation Yrotation Xrotation
						End Site
						{
							OFFSET 0.000000 0.000000 0.000000
						}
					}
				}
			}
		}
	}
	JOINT RHipJoint
	{
		OFFSET 0.000000 0.000000 0.000000
		CHANNELS 3 Zrotation Yrotation Xrotation
		JOINT RightUpLeg
		{
			OFFSET -1.305520 -1.794630 0.839290
			CHANNELS 3 Zrotation Yrotation Xrotation
			JOINT RightLeg
			{
				OFFSET -2.542530 -6.985550 0.000000
				CHANNELS 3 Zrotation Yrotation Xrotation
				JOINT RightFoot
				{
					OFFSET -2.568260 -7.056230 0.000000
					CHANNELS 3 Zrotation Yrotation Xrotation
					JOINT RightToeBase
					{
						OFFSET -0.164730 -0.452590 2.363150
						CHANNELS 3 Zrotation Yrotation Xrotation
						End Site
						{
							OFFSET 0.000000 0.000000 0.000000
						}
					}
				}
			}
		}
	}
	JOINT LowerBack
	{
		OFFSET 0.000000 0.000000 0.000000
		CHANNELS 3 Zrotation Yrotation Xrotation
		JOINT Spine
		{
			OFFSET 0.028270 2.035590 -0.193380
			CHANNELS 3 Zrotation Yrotation Xrotation
			JOINT Spine1
			{
				OFFSET 0.056720 2.048850 -0.042750
				CHANNELS 3 Zrotation Yrotation Xrotation
				JOINT Neck
				{
					OFFSET 0.000000 0.000000 0.000000
					CHANNELS 3 Zrotation Yrotation Xrotation
					JOINT Neck1
					{
						OFFSET -0.054170 1.746240 0.172020
						CHANNELS 3 Zrotation Yrotation Xrotation
						JOINT Head
						{
							OFFSET 0.104070 1.761360 -0.123970
							CHANNELS 3 Zrotation Yrotation Xrotation
							End Site
							{
								OFFSET 0.000000 0.000000 0.000000
							}
						}
					}
				}
				JOINT LeftShoulder
				{
					OFFSET 0.000000 0.000000 0.000000
					CHANNELS 3 Zrotation Yrotation Xrotation
					JOINT LeftArm
					{
						OFFSET 3.362410 1.200890 -0.311210
						CHANNELS 3 Zrotation Yrotation Xrotation
						JOINT LeftForeArm
						{
							OFFSET 4.983000 -0.000000 -0.000000
							CHANNELS 3 Zrotation Yrotation Xrotation
							JOINT LeftHand
							{
								OFFSET 3.483560 -0.000000 -0.000000
								CHANNELS 3 Zrotation Yrotation Xrotation
								JOINT LeftFingerBase
								{
									OFFSET 0.000000 0.000000 0.000000
									CHANNELS 3 Zrotation Yrotation Xrotation
									JOINT LeftHandIndex1
									{
										OFFSET 0.715260 -0.000000 -0.000000
										CHANNELS 3 Zrotation Yrotation Xrotation
										End Site
										{
											OFFSET 0.000000 0.000000 0.000000
										}
									}
								}
								JOINT LThumb
								{
									OFFSET 0.000000 0.000000 0.000000
									CHANNELS 3 Zrotation Yrotation Xrotation
									End Site
									{
										OFFSET 0.000000 0.000000 0.000000
									}
								}
							}
						}
					}
				}
				JOINT RightShoulder
				{
					OFFSET 0.000000 0.000000 0.000000
					CHANNELS 3 Zrotation Yrotation Xrotation
					JOINT RightArm
					{
						OFFSET -3.136600 1.374050 -0.404650
						CHANNELS 3 Zrotation Yrotation Xrotation
						JOINT RightForeArm
						{
							OFFSET -5.241900 -0.000000 -0.000000
							CHANNELS 3 Zrotation Yrotation Xrotation
							JOINT RightHand
							{
								OFFSET -3.444170 -0.000000 -0.000000
								CHANNELS 3 Zrotation Yrotation Xrotation
								JOINT RightFingerBase
								{
									OFFSET 0.000000 0.000000 0.000000
									CHANNELS 3 Zrotation Yrotation Xrotation
									JOINT RightHandIndex1
									{
										OFFSET -0.622530 -0.000000 -0.000000
										CHANNELS 3 Zrotation Yrotation Xrotation
										End Site
										{
											OFFSET 0.000000 0.000000 0.000000
										}
									}
								}
								JOINT RThumb
								{
									OFFSET 0.000000 0.000000 0.000000
									CHANNELS 3 Zrotation Yrotation Xrotation
									End Site
									{
										OFFSET 0.000000 0.000000 0.000000
									}
								}
							}
						}
					}
				}
			}
		}
	}
}
MOTION
Frames: 6
Frame Time: 0.008333
0.243125 15.867706 -11.564151 -1.880155 0.871799 20.149107 0.746922 -0.759917 -0.565094 -12.941859 -7.489290 -36.081368 8.613070 17.703662 56.678456 -1.075139 16.084722 -27.284951 1.559000 -7.879800 -22.349500 -2.562422 0.247176 0.192419 20.260319 11.572293 -34.897072 -8.669960 -17.844825 56.820046 -1.198979 -12.562046 -34.617366 -0.338100 3.736800 -10.337200 0.271160 0.658312 13.455422 1.682563 1.208617 -3.527564 3.064199 0.361567 -4.251237 -4.812232 -1.152716 -17.509149 3.035021 -0.245066 14.390313 0.489600 -0.054600 8.469500 9.261685 3.733538 -0.603437 -96.408950 -17.185602 25.230601 7.974866 -16.590569 -1.206682 -0.104292 -0.496392 -10.575059 29.176818 -7.958720 -4.149700 -7.125000 0.000000 0.000000 1.863500 21.497600 -1.051500 -8.068752 -3.077543 -0.835182 90.722973 13.922978 11.960150 -11.142408 22.038089 -2.530159 0.928913 0.706421 31.661115 -25.123008 -24.485291 11.667400 7.125000 0.000000 0.000000 4.724500 -57.882100 -1.491800 
0.242517 15.980245 -11.333395 -1.622008 0.997152 19.547264 0.610690 -0.698318 -0.466919 -13.423393 -6.771966 -34.186263 8.245299 17.402156 55.434811 -1.213301 15.790933 -26.057753 1.720900 -8.258800 -23.503000 -2.429865 0.193106 0.165903 20.392188 10.480321 -32.472442 -8.105470 -17.361272 54.910685 -1.101463 -12.424652 -34.031114 -0.406700 4.094100 -11.341600 0.162384 0.617856 12.629082 1.653183 1.110092 -3.503637 3.012789 0.307848 -3.772285 -4.847055 -1.183881 -17.170029 3.043258 -0.289385 14.951649 0.504600 -0.066200 8.568600 9.271062 3.795654 -0.578189 -96.470780 -17.065895 26.240031 8.215675 -17.040831 -1.285003 -0.094316 -0.506208 -11.121468 29.107775 -7.914123 -4.107100 -7.125000 0.000000 0.000000 1.814800 21.566100 -1.021200 -8.106841 -3.118187 -0.807610 90.784081 13.799451 12.445963 -11.208443 22.199124 -2.563889 0.920604 0.713890 31.392785 -25.106229 -24.429687 11.633500 7.125000 0.000000 0.000000 4.728000 -57.819900 -1.485800 
0.242821 16.018671 -11.115921 -1.356374 1.148134 18.917233 0.504920 -0.639071 -0.381954 -13.829080 -6.090889 -32.649155 8.013952 17.187952 54.598092 -1.330217 15.298045 -24.515458 1.891800 -8.636900 -24.665800 -2.316212 0.135026 0.147223 20.430676 9.445847 -30.305296 -7.630652 -16.921725 53.248354 -0.958902 -12.260183 -33.161657 -0.495400 4.512600 -12.523500 0.045972 0.570919 11.688646 1.623252 1.001531 -3.473214 2.956538 0.248256 -3.217964 -4.873887 -1.220286 -16.770994 3.058664 -0.348645 15.582598 0.520000 -0.082000 8.673000 9.279881 3.869909 -0.546016 -96.540780 -16.884979 27.139842 8.391196 -17.386919 -1.343714 -0.088208 -0.516032 -11.370674 29.084156 -7.917164 -4.098300 -7.125000 0.000000 0.000000 1.796800 21.577400 -1.010600 -8.145342 -3.169969 -0.774321 90.869568 13.615497 12.874163 -11.248120 22.330388 -2.588287 0.909241 0.724307 31.057784 -25.018195 -24.345347 11.550800 7.125000 0.000000 0.000000 4.802100 -57.712100 -1.496700 
0.242212 16.156252 -10.867118 -1.099387 1.324143 18.286994 0.382207 -0.567086 -0.280771 -14.221649 -5.271829 -30.870923 7.702428 16.907410 53.471218 -1.430410 14.598623 -22.618894 2.057800 -8.985500 -25.750100 -2.183679 0.063716 0.132507 20.481196 8.278316 -27.813785 -7.060599 -16.373720 51.201106 -0.754021 -12.077401 -31.921312 -0.606700 4.985600 -13.867400 -0.064311 0.517915 10.609706 1.592442 0.886400 -3.433707 2.888990 0.183694 -2.576552 -4.894397 -1.260341 -16.300843 3.085694 -0.423810 16.252343 0.537600 -0.102300 8.765900 9.288747 3.955478 -0.505976 -96.607758 -16.649558 27.990941 8.524877 -17.672030 -1.389893 -0.083533 -0.527109 -11.549955 29.076481 -7.918952 -4.090900 -7.125000 0.000000 0.000000 1.791500 21.590500 -1.007100 -8.185025 -3.235045 -0.734668 90.981601 13.388162 13.255247 -11.264186 22.437138 -2.604490 0.895753 0.736319 30.736174 -24.870924 -24.247433 11.431700 7.125000 0.000000 0.000000 4.939500 -57.576700 -1.523500 
0.242010 16.303668 -10.610002 -0.858489 1.513290 17.646219 0.271690 -0.491360 -0.181945 -14.548697 -4.412880 -29.182836 7.423610 16.643335 52.422381 -1.495075 13.693489 -20.385026 2.213600 -9.297400 -26.730200 -2.058631 -0.015083 0.124362 20.492284 7.093440 -25.374205 -6.525881 -15.821247 49.201178 -0.508556 -11.816563 -30.292418 -0.738000 5.488000 -15.305700 -0.164695 0.461013 9.414625 1.560531 0.769245 -3.381869 2.805757 0.116943 -1.847222 -4.898671 -1.297825 -15.758148 3.115970 -0.508655 16.935227 0.552700 -0.124400 8.835400 9.298229 4.051175 -0.457650 -96.660325 -16.371358 28.843506 8.632944 -17.924523 -1.428491 -0.078665 -0.539982 -11.838659 29.054261 -7.907872 -4.073300 -7.125000 0.000000 0.000000 1.777400 21.621200 -0.997900 -8.225186 -3.313433 -0.688245 91.117786 13.134402 13.596760 -11.257251 22.519965 -2.612523 0.881514 0.748386 30.519628 -24.680999 -24.151278 11.291800 7.125000 0.000000 0.000000 5.127100 -57.434400 -1.564000 
0.242415 16.461628 -10.345079 -0.646908 1.705223 16.987083 0.162775 -0.411510 -0.082396 -14.797583 -3.503548 -27.499905 7.104722 16.343056 51.205818 -1.539262 12.612122 -17.638531 2.350700 -9.561200 -27.567200 -1.933308 -0.100726 0.121555 20.476157 5.865015 -22.923450 -5.973726 -15.218298 47.050092 -0.198779 -11.492015 -28.078568 -0.886900 6.003100 -16.793500 -0.245831 0.402352 8.126850 1.528509 0.654722 -3.314633 2.706431 0.050379 -1.036331 -4.892239 -1.330121 -15.127794 3.151029 -0.601022 17.601362 0.566900 -0.147900 8.864600 9.308323 4.154924 -0.400255 -96.694760 -16.055567 29.709885 8.731576 -18.171412 -1.464971 -0.072729 -0.554825 -12.330347 29.007157 -7.894718 -4.049700 -7.125000 0.000000 0.000000 1.746500 21.657900 -0.979100 -8.265088 -3.404975 -0.634228 91.273278 12.863488 13.910293 -11.228997 22.580284 -2.612662 0.868272 0.758764 30.478567 -24.483688 -24.055680 11.148600 7.125000 0.000000 0.000000 5.324100 -57.291600 -1.606000 
